<?xml version="1.0" encoding="UTF-8"?>
<svg id="Capa_2" data-name="Capa 2" xmlns="http://www.w3.org/2000/svg" viewBox="0 0 517 530">
  <defs>
    <style>
      .cls-1 {
        fill: #062434;
        stroke: #062434;
        stroke-miterlimit: 10;
        stroke-width: 12px;
      }

      .cls-2 {
        fill: #fff;
      }
    </style>
  </defs>
  <g id="Capa_1-2" data-name="Capa 1">
    <g>
      <rect class="cls-1" x="6" y="6" width="505" height="518" rx="2.2" ry="2.2"/>
      <path class="cls-2" d="M489.64,364.44v31.56c0,.92-.57,1.75-1.44,2.07-58.01,21.49-119.67,24.66-179.39,7.7-62.69-17.8-114.67-63.94-179.47-77.35-34.86-7.21-64.86-5.38-99.45-.11-1.33.2-2.53-.82-2.53-2.17v-32.65c0-1.03.72-1.94,1.73-2.15,57.23-12.33,112.16-3.8,165.42,19.17,35.61,15.35,67.43,38.82,104.08,52.08,63.83,23.09,124.29,17.08,188.28-.25,1.4-.38,2.77.67,2.77,2.11Z"/>
      <path class="cls-2" d="M489.64,443.44v31.56c0,.92-.57,1.75-1.44,2.07-58.01,21.49-119.67,24.66-179.39,7.7-62.69-17.8-114.67-63.94-179.47-77.35-34.86-7.21-64.86-5.38-99.45-.11-1.33.2-2.53-.82-2.53-2.17v-32.65c0-1.03.72-1.94,1.73-2.15,57.23-12.33,112.16-3.8,165.42,19.17,35.61,15.35,67.43,38.82,104.08,52.08,63.83,23.09,124.29,17.08,188.28-.25,1.4-.38,2.77.67,2.77,2.11Z"/>
      <path class="cls-2" d="M489.64,289.9v32.55c0,1.19-.95,2.15-2.14,2.19-47.11,1.32-88.37,17.29-136.32,10-79.8-12.13-139.27-69.85-216.88-85.15-35.99-7.1-68.85-6.27-104.21,2.49-1.39.34-2.73-.69-2.73-2.12v-31.57c0-.94.59-1.78,1.48-2.09,36.98-12.56,83.98-10.25,121.81-1.55,73.95,17,132.55,73.37,208.79,82.97,43.9,5.53,84.42-7.88,127.91-9.92,1.25-.06,2.3.95,2.3,2.2Z"/>
      <path class="cls-2" d="M489.64,215.38v32.83c0,1.29-1.12,2.32-2.4,2.19-16.56-1.68-31.63-6.38-50.07-6-48.61.99-68.05,19.84-120.62,1.59-3.78-1.31-18.53-6.62-25.1-11.17-1.7-1.18-1.03-3.84,1.04-4.01,65.47-5.36,129.23-32.78,195.45-17.57,1,.23,1.7,1.13,1.7,2.15Z"/>
      <path class="cls-2" d="M27.36,448.89c1.25-3.84,26.56-6.97,31.77-7.27,48.2-2.77,106.63,11.88,148.38,35.38,1.73.98,2.49,2.93,2.84,4.67.23,1.13-.47,2.23-1.58,2.54l-52.6,14.3c-.48.13-1,.09-1.45-.11-39.79-17.65-81.72-23.79-124.75-16.08-1.35.24-2.59-.78-2.59-2.15v-31.27Z"/>
      <g>
        <path class="cls-2" d="M151.88,174.31h-31.09c-.74,0-1.44-.38-1.84-1l-52.98-81.46c-1.19-1.83-4.04-.99-4.04,1.2v79.07c0,1.21-.98,2.2-2.2,2.2h-30.09c-1.21,0-2.2-.98-2.2-2.2V32.76c0-1.21.98-2.2,2.2-2.2h31.09c.74,0,1.44.38,1.84,1l52.98,81.84c1.19,1.84,4.04.99,4.04-1.19V32.76c0-1.21.98-2.2,2.2-2.2h30.09c1.21,0,2.2.98,2.2,2.2v139.36c0,1.21-.98,2.2-2.2,2.2Z"/>
        <path class="cls-2" d="M318.99,33.75l-47.13,92.58c-.16.31-.24.65-.24,1v44.79c0,1.21-.98,2.2-2.2,2.2h-30.09c-1.21,0-2.2-.98-2.2-2.2v-44.79c0-.35-.08-.69-.24-1l-47.13-92.58c-.74-1.46.32-3.19,1.96-3.19h34.12c.86,0,1.64.5,2,1.29l24.83,54.52c.78,1.72,3.22,1.71,4,0l24.64-54.5c.36-.79,1.14-1.29,2-1.29h33.71c1.64,0,2.7,1.73,1.96,3.19Z"/>
        <path class="cls-2" d="M449.93,76.02c-.79,0-1.51-.44-1.91-1.12-2.51-4.23-5.97-7.51-10.36-9.84-4.77-2.52-10.38-3.79-16.84-3.79-11.16,0-20.1,3.72-26.82,11.16-6.72,7.44-10.08,17.37-10.08,29.79,0,13.24,3.53,23.58,10.58,31.02,7.06,7.44,16.77,11.16,29.13,11.16,8.47,0,15.63-2.18,21.47-6.55,5.11-3.82,9.02-9.1,11.71-15.84.57-1.43-.51-3-2.05-3h-38.42c-1.21,0-2.2-.98-2.2-2.2v-21.41c0-1.21.98-2.2,2.2-2.2h70.61c1.21,0,2.2.98,2.2,2.2v30.03c0,.22-.03.44-.09.65-2.57,8.62-6.87,16.63-12.91,24.05-6.12,7.51-13.88,13.59-23.29,18.23-9.41,4.64-20.03,6.96-31.86,6.96-13.98,0-26.45-3.1-37.4-9.32-10.96-6.21-19.49-14.85-25.61-25.9-6.12-11.06-9.17-23.68-9.17-37.88s3.06-26.86,9.17-37.99c6.12-11.12,14.62-19.79,25.51-26.01,10.89-6.21,23.32-9.32,37.3-9.32,16.94,0,31.22,4.17,42.85,12.49,10.87,7.79,18.3,18.37,22.3,31.77.42,1.41-.63,2.84-2.11,2.84h-33.93Z"/>
      </g>
    </g>
  </g>
</svg>